<svg xmlns="http://www.w3.org/2000/svg" width="16" height="16" viewBox="0 0 16 16"><path d="M 13.333 2.667 L 8 2.667 C 5.054 2.667 2.667 5.054 2.667 8 L 2.667 8.333 C 2.667 11.095 4.905 13.333 7.667 13.333 L 7.667 13.333 C 10.428 13.333 12.667 11.095 12.667 8.333 L 12.667 5.333 L 10.667 5.333 L 8 5.333 C 6.527 5.333 5.333 6.527 5.333 8 L 5.333 8.333 C 5.333 9.622 6.378 10.667 7.667 10.667 L 7.667 10.667 C 8.955 10.667 10 9.622 10 8.333 L 10 8 L 8 8" fill="transparent" stroke-width="1.33" stroke="#fff"></path><path d="M 8 7.333 C 8.368 7.333 8.667 7.632 8.667 8 C 8.667 8.368 8.368 8.667 8 8.667 C 7.632 8.667 7.333 8.368 7.333 8 C 7.333 7.632 7.632 7.333 8 7.333 Z" fill="#fff"></path></svg>