<svg width="76" height="76" viewBox="0 0 76 76" fill="none" xmlns="http://www.w3.org/2000/svg">
<path d="M65 11H38C23.0881 11 11 23.0881 11 38V39.6875C11 53.6667 22.3333 65 36.3125 65C50.2917 65 61.625 53.6667 61.625 39.6875V24.5H38C30.5446 24.5 24.5 30.5446 24.5 38V39.6875C24.5 46.2114 29.7886 51.5 36.3125 51.5C42.8364 51.5 48.125 46.2114 48.125 39.6875V38H38" stroke="white" stroke-width="6" stroke-miterlimit="10"/>
<path d="M38 35C39.657 35 41 36.343 41 38C41 39.657 39.657 41 38 41C36.343 41 35 39.657 35 38C35 36.343 36.343 35 38 35Z" fill="white"/>
</svg>
