<svg xmlns="http://www.w3.org/2000/svg" width="16" height="16"><path d="M 13.333 2.667 L 8 2.667 C 6.586 2.667 5.229 3.229 4.229 4.229 C 3.229 5.229 2.667 6.586 2.667 8 L 2.667 8.333 C 2.667 11.094 4.906 13.333 7.667 13.333 L 7.667 13.333 C 10.428 13.333 12.667 11.094 12.667 8.333 L 12.667 5.333 L 8 5.333 C 6.527 5.333 5.333 6.527 5.333 8 L 5.333 8.333 C 5.333 9.622 6.378 10.667 7.667 10.667 L 7.667 10.667 C 8.956 10.666 10 9.622 10 8.333 L 10 8 L 8 8" fill="transparent" stroke-width="1.5" stroke="rgb(136,136,136)" stroke-miterlimit="10"></path><path d="M 8.001 7.25 C 8.415 7.25 8.75 7.586 8.75 8.001 C 8.75 8.415 8.414 8.75 7.999 8.75 C 7.585 8.75 7.25 8.414 7.25 7.999 C 7.25 7.585 7.586 7.25 8.001 7.25 Z" fill="rgb(136,136,136)"></path></svg>