<svg width="32" height="32" viewBox="0 0 32 32" fill="none" xmlns="http://www.w3.org/2000/svg">
    <style>
        path {
            fill: var(--black);
        }
        @media (prefers-color-scheme: dark) {
            path {
                fill: var(--white);
            }
        }
    </style>
    <path fill-rule="evenodd" clip-rule="evenodd" d="M16 32C24.8366 32 32 24.8366 32 16C32 7.16344 24.8366 0 16 0C7.16344 0 0 7.16344 0 16C0 24.8366 7.16344 32 16 32ZM2 16C2 23.732 8.26801 30 16 30C19.866 30 23 26.866 23 23C23 19.134 19.866 16 16 16C12.134 16 9 12.866 9 9C9 5.13401 12.134 2 16 2C8.26801 2 2 8.26801 2 16Z" />
</svg>
